<?xml version="1.0" standalone="no"?><!DOCTYPE svg PUBLIC "-//W3C//DTD SVG 1.1//EN" "http://www.w3.org/Graphics/SVG/1.1/DTD/svg11.dtd"><svg t="1504670130014" class="icon" style="" viewBox="0 0 1024 1024" version="1.1" xmlns="http://www.w3.org/2000/svg" p-id="1650" xmlns:xlink="http://www.w3.org/1999/xlink" width="200" height="200"><defs><style type="text/css"></style></defs><path d="M892.927 288.502l-28.264 28.264c33.232 58.84 52.203 126.802 52.203 199.198 0 224.039-181.617 405.654-405.654 405.654-224.035 0-405.652-181.615-405.652-405.654 0-224.037 181.617-405.654 405.652-405.654 67.313 0 130.793 16.402 186.672 45.416l28.534-28.534C662.661 91.824 589.29 71.679 511.213 71.679c-245.372 0-444.287 198.913-444.287 444.285 0 245.376 198.915 444.287 444.287 444.287 245.374 0 444.287-198.911 444.287-444.287 0-83.131-22.838-160.925-62.573-227.462z m-71.175-54.249l27.318 27.318 40.977-40.977c22.632-22.63 22.632-59.322 0-81.954-22.63-22.632-59.322-22.632-81.954 0l-40.977 40.977 27.318 27.318 27.318 27.318z m13.659-68.295c7.543-7.543 19.775-7.543 27.318 0 7.543 7.543 7.543 19.775 0 27.318l-13.659 13.659-27.318-27.318 13.659-13.659zM387.865 558.645l-62.743 144.069 144.067-62.743 0.742 0.74L821.753 288.89l-27.318-27.318-351.822 351.822-27.318-27.32 351.821-351.821-27.32-27.318-351.821 351.824-0.11-0.114z" p-id="1651"  fill="#333"></path></svg>