<svg id="图层_1" data-name="图层 1" xmlns="http://www.w3.org/2000/svg" viewBox="0 0 1260.58 287.07"><defs><style>.cls-1{fill:#e20000;}.cls-2{fill:#fff;}.cls-3{fill:#4c4c4c;}</style></defs><title>skywen</title><circle class="cls-1" cx="143.54" cy="143.54" r="143.54"/><polygon class="cls-2" points="186.51 69.11 229.48 143.54 186.51 217.97 100.56 217.97 57.59 143.54 100.56 69.11 186.51 69.11"/><path class="cls-1" d="M-992-184l-11.09,10.81h-55.08l-11.09-11.09h63.5v-38.38h-52.38l-11.12-11.09V-264.1l11.09-11.09H-992l-11.09,11.09h-52.4v30.35h52.4L-992-222.66Z" transform="translate(1177.3 366.19)"/><path class="cls-1" d="M-695.18-170.24l-18.23,17.76h-90.5l-18.23-18.23H-717.8v-63.05h-86.06L-822.13-252v-49.86l18.23-18.23h108.73l-18.23,18.23h-86.1V-252h86.1l18.23,18.23Z" transform="translate(1177.3 366.19)"/><path class="cls-1" d="M-543.54-152.48h-36L-652-197.73v45.25h-22.62v-167.6H-652v99.51l54.26-49.65L-584-256.42-634-211.19Z" transform="translate(1177.3 366.19)"/><path class="cls-1" d="M-417.4-107l-18.23,18h-90.5l-18.23-18.23H-440v-58.66l-22.67,13.41h-63.39l-18.26-18.23V-256.6h22.62v85.89H-440V-256.6h22.62Z" transform="translate(1177.3 366.19)"/><path class="cls-3" d="M-210.84-170.71l-18,18.23h-63.47l-11.31-13.62L-315-152.48h-63.27l-18.23-18.23V-256.6h22.62v85.89H-315V-256.6h22.62v85.89h58.87V-256.6h22.62Z" transform="translate(1177.3 366.19)"/><path class="cls-3" d="M-63.15-152.48H-167.27l-22.63-18.23v-67.66l18-18.23h90.7l18,18.23v31.42l-18,18.22h-63.47l-22.62-13.61v31.63h86.1Zm-22.62-54.47v-31.42h-81.49v31.42Z" transform="translate(1177.3 366.19)"/><path class="cls-3" d="M83.28-152.48H60.66v-85.89H-20.83v85.89H-43.46V-256.6h22.62v13.41L1.79-256.6H65.06l18.22,18.23Z" transform="translate(1177.3 366.19)"/></svg>