<?xml version="1.0" standalone="no"?><!DOCTYPE svg PUBLIC "-//W3C//DTD SVG 1.1//EN" "http://www.w3.org/Graphics/SVG/1.1/DTD/svg11.dtd"><svg t="1504670406561" class="icon" style="" viewBox="0 0 1024 1024" version="1.1" xmlns="http://www.w3.org/2000/svg" p-id="948" xmlns:xlink="http://www.w3.org/1999/xlink" width="200" height="200"><defs><style type="text/css"></style></defs><path d="M513.643 847.894c-30.888 0-55.929-25.039-55.929-55.929h-37.286c0 51.482 41.734 93.216 93.214 93.216s93.216-41.734 93.216-93.216H569.57c0.001 30.89-25.038 55.929-55.927 55.929zM886.5 736.039c0-2.761-0.616-5.373-1.693-7.73-7.831-60.866-42.395-113.302-91.522-145.317V419.109c0-121.769-77.84-225.342-186.469-263.723-1.441-50.221-42.604-90.492-93.174-90.492-50.569 0-91.731 40.271-93.172 90.491C311.841 193.766 234 297.339 234 419.109v163.885c-49.126 32.015-83.691 84.451-91.522 145.316a18.538 18.538 0 0 0-1.693 7.729c0 1.467 0.187 2.887 0.507 4.256-0.33 4.753-0.507 9.548-0.507 14.385H886.5c0-4.837-0.177-9.632-0.507-14.385 0.32-1.369 0.507-2.789 0.507-4.256z m-704.239-18.643c11.288-49.57 44.579-90.731 89.027-112.855V419.109c0-1.884 0.029-3.762 0.071-5.636 0.013-0.559 0.031-1.115 0.048-1.673 0.041-1.378 0.093-2.753 0.157-4.126 0.026-0.561 0.05-1.122 0.08-1.682 0.094-1.768 0.203-3.532 0.335-5.289l0.019-0.279c0.141-1.842 0.308-3.677 0.489-5.508 0.054-0.548 0.115-1.095 0.173-1.642a240.8 240.8 0 0 1 0.458-4.009c0.069-0.565 0.138-1.131 0.211-1.695 0.214-1.647 0.442-3.29 0.689-4.927 0.026-0.173 0.048-0.348 0.075-0.521 0.274-1.792 0.573-3.575 0.887-5.353 0.096-0.545 0.198-1.087 0.298-1.63 0.236-1.289 0.482-2.575 0.739-3.858 0.115-0.573 0.229-1.146 0.347-1.718 0.314-1.513 0.642-3.02 0.984-4.522 0.06-0.265 0.115-0.531 0.177-0.796 0.4-1.729 0.823-3.449 1.26-5.163 0.139-0.547 0.285-1.091 0.428-1.636 0.321-1.225 0.652-2.447 0.992-3.665 0.164-0.589 0.329-1.177 0.497-1.764 0.397-1.38 0.806-2.755 1.227-4.124 0.106-0.344 0.206-0.691 0.313-1.034a241.398 241.398 0 0 1 1.604-4.942c0.189-0.564 0.386-1.125 0.579-1.687 0.393-1.142 0.793-2.28 1.203-3.415 0.221-0.611 0.442-1.222 0.667-1.83 0.457-1.233 0.925-2.461 1.401-3.685 0.169-0.433 0.331-0.87 0.502-1.302a246.008 246.008 0 0 1 1.915-4.688c0.247-0.587 0.501-1.17 0.752-1.755a241.758 241.758 0 0 1 2.23-5.04c0.497-1.088 1.005-2.17 1.517-3.249 0.243-0.511 0.479-1.025 0.726-1.534a238.436 238.436 0 0 1 2.194-4.415c0.313-0.615 0.635-1.226 0.953-1.838a243.474 243.474 0 0 1 2.562-4.802c0.519-0.945 1.046-1.885 1.577-2.822 0.331-0.585 0.657-1.173 0.993-1.755 0.798-1.381 1.61-2.753 2.434-4.117 0.393-0.65 0.794-1.293 1.193-1.939a242.387 242.387 0 0 1 2.864-4.536c0.522-0.805 1.051-1.605 1.582-2.404 0.429-0.645 0.854-1.294 1.289-1.935a238.875 238.875 0 0 1 2.641-3.809c0.484-0.684 0.977-1.361 1.468-2.04a229.364 229.364 0 0 1 3.133-4.242c0.511-0.676 1.029-1.347 1.547-2.017 0.534-0.691 1.065-1.385 1.607-2.07a243.22 243.22 0 0 1 2.817-3.498c0.584-0.712 1.178-1.414 1.77-2.119a232.462 232.462 0 0 1 3.371-3.934c0.49-0.559 0.985-1.114 1.48-1.668 0.643-0.72 1.284-1.442 1.935-2.155 0.146-0.16 0.297-0.317 0.444-0.477a242.936 242.936 0 0 1 4.629-4.892c0.47-0.484 0.94-0.969 1.415-1.449a243.023 243.023 0 0 1 11.363-10.779c0.432-0.384 0.862-0.769 1.296-1.15 0.809-0.71 1.624-1.414 2.443-2.113 0.43-0.368 0.864-0.732 1.297-1.097a243.264 243.264 0 0 1 8.598-6.913c0.388-0.298 0.776-0.598 1.166-0.894 0.898-0.681 1.802-1.354 2.71-2.023 0.407-0.3 0.816-0.596 1.225-0.893a242.506 242.506 0 0 1 9.32-6.445c0.349-0.23 0.697-0.461 1.047-0.689 0.98-0.637 1.965-1.266 2.955-1.889 0.389-0.245 0.779-0.487 1.169-0.73a241.241 241.241 0 0 1 9.977-5.879c0.318-0.177 0.635-0.357 0.954-0.533a245.02 245.02 0 0 1 14.853-7.534c0.301-0.14 0.6-0.282 0.901-0.421 1.097-0.505 2.2-0.999 3.306-1.488 0.404-0.179 0.81-0.355 1.215-0.532a240.553 240.553 0 0 1 40.684-13.544v-25.142c0-30.887 25.041-55.929 55.929-55.929 30.889 0 55.929 25.041 55.929 55.929v25.142a240.485 240.485 0 0 1 37.288 12.09h0.001c1.137 0.474 2.267 0.962 3.395 1.453a244.346 244.346 0 0 1 4.522 2.019c0.306 0.141 0.61 0.285 0.915 0.427a241.248 241.248 0 0 1 11.688 5.822c1.056 0.563 2.109 1.131 3.156 1.708 0.317 0.175 0.631 0.353 0.947 0.529a242.518 242.518 0 0 1 11.152 6.613 238.33 238.33 0 0 1 2.953 1.888c0.352 0.229 0.7 0.461 1.051 0.692a243.7 243.7 0 0 1 9.321 6.446c0.407 0.296 0.815 0.592 1.221 0.89 0.908 0.668 1.812 1.342 2.71 2.023 0.392 0.297 0.781 0.599 1.171 0.898a243.898 243.898 0 0 1 8.593 6.909c0.435 0.366 0.869 0.731 1.301 1.1 0.817 0.698 1.63 1.401 2.438 2.109 0.436 0.383 0.869 0.77 1.302 1.156a241.488 241.488 0 0 1 7.81 7.263 223.348 223.348 0 0 1 3.55 3.515c0.473 0.479 0.941 0.962 1.41 1.444a241.817 241.817 0 0 1 4.695 4.963c0.126 0.137 0.254 0.271 0.379 0.408 0.652 0.713 1.294 1.436 1.938 2.157 0.494 0.554 0.989 1.107 1.478 1.666 0.626 0.714 1.247 1.432 1.865 2.153 0.506 0.591 1.006 1.186 1.506 1.781 0.592 0.705 1.186 1.407 1.77 2.119 0.95 1.158 1.89 2.325 2.819 3.5 0.54 0.683 1.069 1.375 1.601 2.064 0.52 0.673 1.039 1.346 1.552 2.024a247.64 247.64 0 0 1 3.137 4.249c0.488 0.675 0.979 1.348 1.46 2.028a243.882 243.882 0 0 1 2.643 3.812c0.435 0.641 0.86 1.289 1.289 1.935 0.531 0.799 1.061 1.599 1.583 2.405a232.835 232.835 0 0 1 2.865 4.536c0.398 0.645 0.8 1.289 1.192 1.938a245.703 245.703 0 0 1 2.434 4.117c0.336 0.583 0.663 1.171 0.994 1.757 0.53 0.936 1.057 1.874 1.575 2.817a237.11 237.11 0 0 1 2.563 4.802c0.319 0.613 0.641 1.224 0.954 1.84a241.38 241.38 0 0 1 2.193 4.413c0.246 0.509 0.482 1.022 0.725 1.533a235.007 235.007 0 0 1 1.52 3.255 262.562 262.562 0 0 1 2.227 5.031c0.252 0.587 0.508 1.173 0.755 1.762a245.917 245.917 0 0 1 1.915 4.687c0.171 0.431 0.333 0.867 0.501 1.299 0.476 1.224 0.944 2.451 1.401 3.685 0.226 0.609 0.447 1.221 0.668 1.833 0.41 1.134 0.81 2.273 1.203 3.416 0.193 0.561 0.389 1.121 0.578 1.683 0.551 1.64 1.088 3.285 1.604 4.941 0.109 0.348 0.21 0.7 0.317 1.049 0.419 1.366 0.828 2.737 1.224 4.113 0.169 0.588 0.333 1.177 0.498 1.767 0.339 1.215 0.669 2.434 0.99 3.657 0.144 0.548 0.29 1.095 0.43 1.644 0.437 1.714 0.86 3.434 1.26 5.162 0.061 0.262 0.115 0.527 0.175 0.789 0.343 1.503 0.671 3.012 0.985 4.525 0.119 0.573 0.233 1.148 0.348 1.723 0.256 1.28 0.502 2.564 0.738 3.851 0.1 0.545 0.202 1.089 0.299 1.635 0.313 1.778 0.612 3.56 0.886 5.351 0.027 0.174 0.049 0.35 0.075 0.524 0.247 1.637 0.475 3.279 0.689 4.927 0.073 0.563 0.141 1.127 0.211 1.691a240.8 240.8 0 0 1 0.458 4.009c0.058 0.548 0.118 1.095 0.173 1.643 0.181 1.83 0.349 3.665 0.489 5.507l0.019 0.28c0.132 1.757 0.241 3.521 0.335 5.288 0.03 0.56 0.054 1.122 0.08 1.683 0.064 1.372 0.116 2.747 0.157 4.125 0.017 0.558 0.035 1.115 0.048 1.673 0.043 1.874 0.071 3.751 0.071 5.635V604.54c44.448 22.123 77.738 63.285 89.025 112.855H182.261z m387.31-466.071s38.158 29.053 74.571 74.571c38.119 47.647 55.929 93.212 55.929 93.212s0.431-64.711-37.286-111.857c-36.843-46.055-93.214-55.926-93.214-55.926z" p-id="949" fill="#333"></path></svg>