<?xml version="1.0" standalone="no"?><!DOCTYPE svg PUBLIC "-//W3C//DTD SVG 1.1//EN" "http://www.w3.org/Graphics/SVG/1.1/DTD/svg11.dtd"><svg t="1504670111349" class="icon" style="" viewBox="0 0 1024 1024" version="1.1" xmlns="http://www.w3.org/2000/svg" p-id="1137" xmlns:xlink="http://www.w3.org/1999/xlink" width="200" height="200"><defs><style type="text/css"></style></defs><path d="M949.355 925.236L783.373 759.254a416.688 416.688 0 0 1-26.602 26.602l165.982 165.982c7.346 7.346 19.255 7.346 26.602 0 7.345-7.346 7.345-19.257 0-26.602zM477.75 104.018c-207.78 0-376.217 168.437-376.217 376.214 0 207.778 168.437 376.215 376.217 376.215 207.776 0 376.213-168.437 376.213-376.215 0-207.777-168.437-376.214-376.213-376.214z m0 714.807c-187.002 0-338.596-151.592-338.596-338.594 0-186.998 151.594-338.594 338.596-338.594 186.998 0 338.594 151.596 338.594 338.594 0 187.002-151.596 338.594-338.594 338.594z" p-id="1138" fill="#333"></path></svg>