<?xml version="1.0" standalone="no"?><!DOCTYPE svg PUBLIC "-//W3C//DTD SVG 1.1//EN" "http://www.w3.org/Graphics/SVG/1.1/DTD/svg11.dtd"><svg t="1504670126363" class="icon" style="" viewBox="0 0 1024 1024" version="1.1" xmlns="http://www.w3.org/2000/svg" p-id="1515" xmlns:xlink="http://www.w3.org/1999/xlink" width="200" height="200"><defs><style type="text/css"></style></defs><path d="M512.635 63.249c-246.799 0-446.869 200.068-446.869 446.865 0 246.801 200.07 446.867 446.869 446.867 246.797 0 446.865-200.066 446.865-446.867 0-246.797-200.068-446.865-446.865-446.865z m0 854.874c-225.338 0-408.011-182.67-408.011-408.009 0-225.338 182.673-408.009 408.011-408.009 225.336 0 408.007 182.672 408.007 408.009 0 225.34-182.672 408.009-408.007 408.009z m0-660.584c-96.574 0-174.863 104.382-174.863 233.148 0 128.764 78.289 233.148 174.863 233.148 96.572 0 174.859-104.384 174.859-233.148 0-128.765-78.287-233.148-174.859-233.148z m0 427.438c-75.113 0-136.005-86.988-136.005-194.29s60.892-194.29 136.005-194.29 136.003 86.988 136.003 194.29-60.891 194.29-136.003 194.29z m-233.15 97.145c0 1.583 0.404 3.056 0.466 4.624 14.48 10.08 29.658 19.159 45.421 27.325-4.424-9.767-7.029-20.527-7.029-31.949 0-38.166 27.562-69.752 63.836-76.319-9.905-9.744-19.077-20.566-27.494-32.336-43.883 16.729-75.2 58.896-75.2 108.655z m391.096-108.654c-8.417 11.77-17.585 22.592-27.492 32.336 36.274 6.565 63.834 38.153 63.834 76.319 0 11.422-2.603 22.182-7.027 31.949 15.763-8.166 30.941-17.245 45.421-27.325 0.062-1.568 0.464-3.041 0.464-4.624 0-49.76-31.316-91.927-75.2-108.655z" p-id="1516"></path></svg>